<svg width="54" height="54" viewBox="0 0 54 54" fill="none" xmlns="http://www.w3.org/2000/svg">
<circle cx="27" cy="27" r="23" fill="#F2F2F2"/>
<circle cx="27" cy="27" r="26.5" stroke="#00D27F" stroke-dasharray="2 2"/>
<path d="M37 29.2334C37 28.4649 36.3712 27.8361 35.6027 27.8361C36.3712 27.8361 37 27.2073 37 26.4387C37 25.6702 36.3712 25.0414 35.6027 25.0414H29.8737C30.726 22.4843 30.712 21.6226 30.712 20.0576C30.712 19.1493 30.1252 18.3668 29.3147 18.0875C29.0912 18.0036 28.8676 17.9617 28.6161 17.9617H28.1969C27.9314 17.9617 27.596 18.1713 27.5261 18.4927L27.1349 20.0157C26.5481 22.2933 24.6616 25.0414 22.3281 25.0414V34.8227L25.4441 35.8567C26.1567 36.0942 26.8974 36.22 27.6519 36.22H34.2053C34.9771 36.22 35.6027 35.5943 35.6027 34.8227C35.6027 34.0509 34.9771 33.4253 34.2053 33.4253H35.6027C36.3712 33.4253 37 32.7965 37 32.028C37 31.2595 36.3712 30.6307 35.6027 30.6307C36.3712 30.6307 37 30.0019 37 29.2334Z" fill="#FEDBAB"/>
<path d="M34.2045 36.22C34.9763 36.22 35.6018 35.5943 35.6018 34.8227C35.6018 34.0509 34.9763 33.4253 34.2045 33.4253H35.6018C36.3704 33.4253 36.9991 32.7965 36.9991 32.028C36.9991 31.2595 36.3704 30.6307 35.6018 30.6307C36.3704 30.6307 36.9991 30.0019 36.9991 29.2334C36.9991 28.4649 36.3704 27.8361 35.6018 27.8361C36.3704 27.8361 36.9991 27.2073 36.9991 26.4387C36.9991 25.6702 36.3704 25.0414 35.6018 25.0414H29.8729C30.7252 22.4843 30.7112 21.6226 30.7112 20.0576C30.7112 19.1493 30.1244 18.3668 29.3139 18.0875C29.0904 18.0036 28.8668 17.9617 28.6152 17.9617V36.22H34.2045Z" fill="#FEC478"/>
<path d="M20.9297 37.6172H16.7377C16.3515 37.6172 16.0391 37.3047 16.0391 36.9186V24.3427C16.0391 23.9565 16.3515 23.644 16.7377 23.644H20.9297C22.0854 23.644 23.0257 24.5843 23.0257 25.74V35.5213C23.0257 36.677 22.0854 37.6172 20.9297 37.6172Z" fill="#00D27F"/>
<path d="M19.5326 34.8226C19.9185 34.8226 20.2313 34.5098 20.2313 34.124C20.2313 33.7381 19.9185 33.4253 19.5326 33.4253C19.1468 33.4253 18.834 33.7381 18.834 34.124C18.834 34.5098 19.1468 34.8226 19.5326 34.8226Z" fill="#00D27F"/>
<path d="M29.3133 14.4682V15.8655C29.3133 16.2568 29.006 16.5642 28.6147 16.5642C28.2234 16.5642 27.916 16.2568 27.916 15.8655V14.4682C27.916 14.0769 28.2234 13.7695 28.6147 13.7695C29.006 13.7695 29.3133 14.0769 29.3133 14.4682Z" fill="#00D27F"/>
<path d="M24.6614 17.7917L23.6734 16.8037C23.4005 16.5308 23.4005 16.0887 23.6734 15.8158C23.9463 15.5429 24.3885 15.5429 24.6614 15.8158L25.6493 16.8037C25.9222 17.0766 25.9222 17.5188 25.6493 17.7917C25.3764 18.0646 24.9343 18.0646 24.6614 17.7917Z" fill="#00D27F"/>
<path d="M31.5797 17.7917C31.3068 17.5188 31.3068 17.0766 31.5797 16.8037L32.5676 15.8158C32.8405 15.5429 33.2827 15.5429 33.5556 15.8158C33.8285 16.0887 33.8285 16.5308 33.5556 16.8037L32.5676 17.7917C32.2947 18.0646 31.8526 18.0646 31.5797 17.7917Z" fill="#0CBF78"/>
<path d="M29.3139 14.4682V15.8655C29.3139 16.2568 29.0065 16.5642 28.6152 16.5642V13.7695C29.0065 13.7695 29.3139 14.0769 29.3139 14.4682Z" fill="#0CBF78"/>
</svg>
