<svg width="54" height="54" viewBox="0 0 54 54" fill="none" xmlns="http://www.w3.org/2000/svg">
<circle cx="27" cy="27" r="23" fill="#F2F2F2"/>
<circle cx="27" cy="27" r="26.5" stroke="#E88612" stroke-dasharray="2 2"/>
<path d="M27 42C35.2843 42 42 35.2843 42 27C42 18.7157 35.2843 12 27 12C18.7157 12 12 18.7157 12 27C12 35.2843 18.7157 42 27 42Z" fill="#F9ECDC"/>
<path d="M26.9998 12C26.5524 12 26.1094 12.0196 25.6719 12.058C33.3341 12.7301 39.3439 19.1633 39.3439 27C39.3439 34.8367 33.3341 41.2699 25.6719 41.942C26.1094 41.9804 26.5524 42 26.9998 42C35.2841 42 41.9998 35.2843 41.9998 27C41.9998 18.7157 35.2841 12 26.9998 12Z" fill="#F2E6D7"/>
<path d="M26.9996 39.4346C24.4911 39.4346 21.9427 38.5958 20.722 37.7673C20.5151 37.6269 20.4612 37.3453 20.6016 37.1384C20.7421 36.9316 21.0236 36.8778 21.2304 37.0181C22.0912 37.6023 24.4186 38.5292 26.9996 38.5292C33.3568 38.5292 38.5288 33.3572 38.5288 27C38.5288 20.6427 33.3568 15.4708 26.9996 15.4708C26.7496 15.4708 26.5469 15.2681 26.5469 15.0181C26.5469 14.7681 26.7496 14.5654 26.9996 14.5654C33.8561 14.5654 39.4342 20.1436 39.4342 27C39.4342 33.8565 33.8561 39.4346 26.9996 39.4346V39.4346Z" fill="#00D27F"/>
<path d="M24.9155 31.9059C24.6426 31.9059 24.3697 31.8018 24.1615 31.5936L20.6525 28.0846C19.6836 27.1157 21.188 25.6038 22.1606 26.5765L24.9155 29.3314L31.8404 22.4064C32.8011 21.4458 34.3312 22.9318 33.3485 23.9145L25.6696 31.5936C25.4613 31.8018 25.1885 31.9059 24.9155 31.9059Z" fill="#00D27F"/>
<path d="M23.91 15.8449C24.4926 15.8449 24.4935 14.9395 23.91 14.9395C23.3274 14.9395 23.3264 15.8449 23.91 15.8449Z" fill="#00D27F"/>
<path d="M21.0115 17.04C21.5941 17.04 21.5951 16.1345 21.0115 16.1345C20.4289 16.1346 20.428 17.04 21.0115 17.04Z" fill="#00D27F"/>
<path d="M18.5213 18.9448C19.1039 18.9448 19.1049 18.0393 18.5213 18.0393C17.9387 18.0394 17.9377 18.9448 18.5213 18.9448Z" fill="#00D27F"/>
<path d="M16.6072 21.4294C17.1898 21.4294 17.1908 20.5239 16.6072 20.5239C16.0246 20.5239 16.0237 21.4294 16.6072 21.4294Z" fill="#00D27F"/>
<path d="M15.4021 24.3244C15.9847 24.3244 15.9857 23.4189 15.4021 23.4189C14.8195 23.4189 14.8186 24.3244 15.4021 24.3244Z" fill="#00D27F"/>
<path d="M14.9881 27.4325C15.5707 27.4325 15.5717 26.5271 14.9881 26.5271C14.4055 26.5271 14.4045 27.4325 14.9881 27.4325Z" fill="#00D27F"/>
<path d="M15.3924 30.5422C15.975 30.5422 15.976 29.6367 15.3924 29.6367C14.8098 29.6367 14.8088 30.5422 15.3924 30.5422Z" fill="#00D27F"/>
<path d="M16.5877 33.4416C17.1703 33.4416 17.1713 32.5361 16.5877 32.5361C16.0051 32.5361 16.0041 33.4416 16.5877 33.4416Z" fill="#00D27F"/>
<path d="M18.492 35.9323C19.0746 35.9323 19.0756 35.0269 18.492 35.0269C17.9094 35.0269 17.9084 35.9323 18.492 35.9323Z" fill="#00D27F"/>
</svg>
