<svg width="54" height="54" viewBox="0 0 54 54" fill="none" xmlns="http://www.w3.org/2000/svg">
<circle cx="27" cy="27" r="23" fill="#F2F2F2"/>
<circle cx="27" cy="27" r="26.5" stroke="#DA4A54" stroke-dasharray="2 2"/>
<path d="M28.3575 19.7432L19.0946 24.304C17.751 24.9656 16.9338 26.3671 17.0198 27.8623L17.2701 32.21L14.6289 34.8513L21.7775 41.9999L27.1798 36.5976L25.88 35.2978L28.3575 19.7432Z" fill="#FEC478"/>
<path d="M28.3579 19.7432L28.0944 21.3989L22.1942 24.304C20.8507 24.9659 20.0334 26.3674 20.1193 27.8623L20.37 32.2101L16.179 36.4011L14.6289 34.8516L17.2704 32.2101L17.0202 27.8623C16.9337 26.3673 17.7512 24.9659 19.0946 24.304L28.3579 19.7432Z" fill="#FEDBAB"/>
<path d="M23.876 30.7888L22.8151 29.7279C22.4707 29.3835 22.3636 28.8675 22.5425 28.4145L23.6181 25.6912L26.8898 28.9628L23.876 30.7888Z" fill="#FEDBAB"/>
<path d="M29.6706 30.7751C34.8552 30.7751 39.0581 26.5722 39.0581 21.3877C39.0581 16.2031 34.8552 12.0002 29.6706 12.0002C24.4861 12.0002 20.2832 16.2031 20.2832 21.3877C20.2832 26.5722 24.4861 30.7751 29.6706 30.7751Z" fill="#DD636E"/>
<path d="M30.8326 30.7034C30.4518 30.7506 30.0637 30.7747 29.6703 30.7747C24.486 30.7747 20.2832 26.572 20.2832 21.3877C20.2832 16.2027 24.486 12 29.6703 12C30.0638 12 30.4518 12.0242 30.8326 12.0713C26.1959 12.6437 22.6067 16.5962 22.6067 21.3877C22.6067 26.1785 26.1959 30.131 30.8326 30.7034Z" fill="#DA4A54"/>
<path d="M31.6233 21.297L33.6288 19.2915C33.9671 18.9531 33.9671 18.4044 33.6288 18.0661L32.5072 16.9445C32.1688 16.6061 31.6201 16.6061 31.2817 16.9445L29.2762 18.9499L27.2707 16.9445C26.9324 16.6061 26.3837 16.6061 26.0453 16.9445L24.9237 18.0661C24.5853 18.4044 24.5853 18.9531 24.9237 19.2915L26.9292 21.297L24.9237 23.3025C24.5853 23.6408 24.5853 24.1895 24.9237 24.5279L26.0453 25.6495C26.3837 25.9879 26.9324 25.9879 27.2707 25.6495L29.2762 23.644L31.2817 25.6495C31.6201 25.9879 32.1688 25.9879 32.5072 25.6495L33.6288 24.5279C33.9671 24.1895 33.9671 23.6408 33.6288 23.3025L31.6233 21.297Z" fill="#F8F6F9"/>
<path d="M29.244 25.4197L23.8751 30.7886C22.3073 32.3564 22.3073 34.8983 23.8751 36.466C25.4429 38.0337 27.9847 38.0337 29.5524 36.466C30.7247 35.2937 31.0202 33.5769 30.4393 32.1298L33.1967 29.3724C34.2882 28.2809 34.2882 26.5112 33.1967 25.4197C32.1052 24.3282 30.3355 24.3282 29.244 25.4197Z" fill="#FEC478"/>
<path d="M23.875 30.7887L29.244 25.4197C29.7897 24.8739 30.505 24.6011 31.2203 24.6011C31.9355 24.6011 32.6508 24.8739 33.1965 25.4197C33.3823 25.6055 33.5367 25.811 33.6592 26.0299C33.236 25.7925 32.7646 25.674 32.2932 25.674C31.5779 25.674 30.8627 25.9469 30.3169 26.4926L25.8238 30.9857C25.3632 31.4463 24.6224 31.4648 24.1393 31.0278L23.875 30.7887Z" fill="#FEDBAB"/>
</svg>
