<svg width="212" height="157" viewBox="0 0 212 157" fill="none" xmlns="http://www.w3.org/2000/svg">
<path d="M211.059 137.806H0.120117V137.911H211.059V137.806Z" fill="#EBEBEB"/>
<path d="M189.923 144.571H175.95V144.676H189.923V144.571Z" fill="#EBEBEB"/>
<path d="M170.639 144.571H140.766V144.676H170.639V144.571Z" fill="#EBEBEB"/>
<path d="M124.291 140.669H116.195V140.774H124.291V140.669Z" fill="#EBEBEB"/>
<path d="M36.7181 141.375H22.252V141.48H36.7181V141.375Z" fill="#EBEBEB"/>
<path d="M66.7767 141.375H40.4727V141.48H66.7767V141.375Z" fill="#EBEBEB"/>
<path d="M95.1016 143.149H79.5723V143.255H95.1016V143.149Z" fill="#EBEBEB"/>
<path d="M100.105 119.055H18.6449C18.0068 119.054 17.3951 118.8 16.9443 118.35C16.4935 117.9 16.2402 117.29 16.2402 116.654V2.53734C16.2458 1.90502 16.5015 1.30043 16.9517 0.854877C17.402 0.409324 18.0104 0.158798 18.6449 0.157715H100.105C100.744 0.157715 101.357 0.410639 101.809 0.860848C102.26 1.31106 102.514 1.92167 102.514 2.55836V116.654C102.514 117.291 102.26 117.901 101.809 118.352C101.357 118.802 100.744 119.055 100.105 119.055ZM18.6449 0.241801C18.0348 0.242915 17.4499 0.485256 17.0189 0.915632C16.5878 1.34601 16.3457 1.92925 16.3457 2.53734V116.654C16.3457 117.262 16.5878 117.845 17.0189 118.276C17.4499 118.706 18.0348 118.949 18.6449 118.95H100.105C100.716 118.949 101.301 118.706 101.733 118.276C102.165 117.846 102.408 117.263 102.409 116.654V2.53734C102.408 1.92887 102.165 1.34563 101.733 0.915375C101.301 0.485119 100.716 0.242912 100.105 0.241801H18.6449Z" fill="#EBEBEB"/>
<path d="M191.362 119.055H109.897C109.259 119.054 108.647 118.8 108.195 118.35C107.744 117.9 107.489 117.29 107.488 116.654V2.53734C107.495 1.90464 107.752 1.30005 108.202 0.854614C108.653 0.409177 109.262 0.158786 109.897 0.157715H191.362C191.996 0.159903 192.603 0.410917 193.052 0.856352C193.502 1.30179 193.757 1.90575 193.762 2.53734V116.654C193.762 117.289 193.51 117.899 193.06 118.349C192.61 118.799 191.999 119.053 191.362 119.055ZM109.897 0.241801C109.287 0.242912 108.701 0.485119 108.27 0.915375C107.838 1.34563 107.595 1.92887 107.594 2.53734V116.654C107.595 117.263 107.838 117.846 108.27 118.276C108.701 118.706 109.287 118.949 109.897 118.95H191.362C191.972 118.949 192.558 118.706 192.989 118.276C193.421 117.846 193.664 117.263 193.665 116.654V2.53734C193.664 1.92887 193.421 1.34563 192.989 0.915375C192.558 0.485119 191.972 0.242912 191.362 0.241801H109.897Z" fill="#EBEBEB"/>
<path d="M32.1155 58.2693L89.3643 58.2693V8.83955L32.1155 8.83955L32.1155 58.2693Z" fill="#E6E6E6"/>
<path d="M30.8372 58.2693L88.0859 58.2693V8.83955L30.8372 8.83955L30.8372 58.2693Z" fill="#F5F5F5"/>
<path d="M85.8037 56.5036V10.6055L33.1239 10.6055V56.5036H85.8037Z" fill="#FAFAFA"/>
<path d="M64.6755 56.5036L74.2225 10.6055H54.2509L44.708 56.5036H64.6755Z" fill="white"/>
<path d="M34.0859 56.5078V10.6096H33.1241V56.5078H34.0859Z" fill="#E6E6E6"/>
<path d="M31.7819 48.2756L87.1406 48.2756V45.9044L31.7819 45.9044V48.2756Z" fill="#F5F5F5"/>
<path d="M86.7065 135.304H95.8486V95.7968H86.7065V135.304Z" fill="#F0F0F0"/>
<path d="M27.0065 137.806H94.0977V135.304H27.0065V137.806Z" fill="#F0F0F0"/>
<path d="M86.7062 95.7925H25.2471V135.3H86.7062V95.7925Z" fill="#F5F5F5"/>
<path d="M83.1163 100.657H28.8418V113.615H83.1163V100.657Z" fill="#F0F0F0"/>
<path d="M83.1163 117.482H28.8418V130.44H83.1163V117.482Z" fill="#F0F0F0"/>
<path d="M41.3501 108.023H70.6073C70.8431 108.022 71.0688 107.928 71.2355 107.762C71.4022 107.596 71.4964 107.371 71.4975 107.136C71.4964 106.9 71.4024 106.675 71.2358 106.508C71.0692 106.341 70.8435 106.247 70.6073 106.244H41.3501C41.114 106.247 40.8882 106.341 40.7216 106.508C40.5551 106.675 40.4611 106.9 40.46 107.136C40.4611 107.371 40.5552 107.596 40.7219 107.762C40.8886 107.928 41.1144 108.022 41.3501 108.023Z" fill="#F5F5F5"/>
<path d="M41.3501 124.848H70.6073C70.8431 124.847 71.0688 124.753 71.2355 124.587C71.4022 124.421 71.4964 124.196 71.4975 123.961C71.4975 123.725 71.4038 123.499 71.237 123.332C71.0702 123.165 70.8438 123.071 70.6073 123.07H41.3501C41.1136 123.071 40.8872 123.165 40.7204 123.332C40.5536 123.499 40.46 123.725 40.46 123.961C40.4611 124.196 40.5552 124.421 40.7219 124.587C40.8886 124.753 41.1144 124.847 41.3501 124.848Z" fill="#F5F5F5"/>
<path d="M182.211 34.6748C187.417 33.2454 189.197 23.832 176.043 19.9893C178.945 29.4573 173.136 37.1553 182.211 34.6748Z" fill="#EBEBEB"/>
<path d="M183.363 38.7615C187.468 34.3428 183.586 24.345 168.804 28.4316C177.165 35.7218 176.212 46.468 183.363 38.7615Z" fill="#E0E0E0"/>
<path d="M179.313 39.8966C175.878 36.508 180.798 24.715 192.138 30.1805C185.712 36.3146 185.324 45.8037 179.313 39.8966Z" fill="#FAFAFA"/>
<path d="M175.887 46.4973H185.881L186.636 39.7578H175.136L175.887 46.4973Z" fill="#E6E6E6"/>
<path d="M175.022 40.9644H186.75C186.948 40.9644 187.138 40.886 187.278 40.7464C187.418 40.6069 187.497 40.4176 187.497 40.2202C187.497 40.0229 187.418 39.8336 187.278 39.694C187.138 39.5545 186.948 39.4761 186.75 39.4761H175.022C174.824 39.4761 174.634 39.5545 174.494 39.694C174.354 39.8336 174.275 40.0229 174.275 40.2202C174.275 40.4176 174.354 40.6069 174.494 40.7464C174.634 40.886 174.824 40.9644 175.022 40.9644Z" fill="#E6E6E6"/>
<path d="M91.7987 126.391V114.977H101.337V103.566H110.88V92.1516H120.419V80.737H129.962V69.3266H139.5V57.9119H149.043V46.4973H158.586H211.059V137.806H91.7987H82.2559V126.391H91.7987Z" fill="#FAFAFA"/>
<path d="M144.271 126.391V114.977H153.814V103.566H163.353V92.1516H172.895V80.737H182.434V69.3266H191.977V57.9119H201.516V46.4973H211.058V57.9119V137.806H144.271H134.732V126.391H144.271Z" fill="#F2F2F2"/>
<path d="M134.733 126.391H81.6943V129.814H134.733V126.391Z" fill="#EBEBEB"/>
<path d="M144.276 114.977H91.2373V118.399H144.276V114.977Z" fill="#EBEBEB"/>
<path d="M153.815 103.566H100.776V106.988H153.815V103.566Z" fill="#EBEBEB"/>
<path d="M163.357 92.1516H110.318V95.5739H163.357V92.1516Z" fill="#EBEBEB"/>
<path d="M172.896 80.7371H119.857V84.1593H172.896V80.7371Z" fill="#EBEBEB"/>
<path d="M182.439 69.3267H129.4V72.7489H182.439V69.3267Z" fill="#EBEBEB"/>
<path d="M191.977 57.9119H138.938V61.3342H191.977V57.9119Z" fill="#EBEBEB"/>
<path d="M201.52 46.4973H148.481V49.9196H201.52V46.4973Z" fill="#EBEBEB"/>
<path d="M105.59 156.792C150.765 156.792 187.388 154.662 187.388 152.033C187.388 149.405 150.765 147.274 105.59 147.274C60.4141 147.274 23.792 149.405 23.792 152.033C23.792 154.662 60.4141 156.792 105.59 156.792Z" fill="#F5F5F5"/>
<path opacity="0.2" d="M100.856 93.9587C93.7089 96.7259 85.8985 97.3189 78.4128 95.6625C70.9272 94.0062 64.1025 90.175 58.8017 84.6533C53.501 79.1317 49.9622 72.1676 48.6329 64.6417C47.3037 57.1158 48.2436 49.3661 51.3338 42.3725C54.4241 35.379 59.5259 29.4557 65.9941 25.3516C72.4623 21.2476 80.0064 19.1471 87.6725 19.3158C95.3385 19.4845 102.782 21.9149 109.062 26.2995C115.342 30.6841 120.177 36.8261 122.954 43.9488C124.799 48.6784 125.691 53.7239 125.579 58.797C125.467 63.8702 124.353 68.8716 122.301 73.5157C120.249 78.1597 117.299 82.3554 113.619 85.8631C109.94 89.3707 105.603 92.1217 100.856 93.9587Z" fill="#00D27F"/>
<path d="M54.8967 31.9159C60.0628 25.6251 66.9848 21.0022 74.7874 18.6318C82.5899 16.2615 90.9225 16.2501 98.7315 18.5992C106.541 20.9483 113.475 25.5523 118.659 31.829C123.842 38.1058 127.041 45.7733 127.852 53.8621C128.663 61.9508 127.048 70.0975 123.213 77.2719C119.378 84.4463 113.494 90.3261 106.305 94.168C99.1165 98.0098 90.9462 99.6411 82.8274 98.8554C74.7086 98.0698 67.0058 94.9025 60.6933 89.7542C52.2292 82.8498 46.8636 72.8778 45.7766 62.0313C44.6896 51.1848 47.9701 40.3522 54.8967 31.9159ZM116.12 81.846C120.862 76.0692 123.778 69.0208 124.501 61.5921C125.224 54.1634 123.72 46.6879 120.179 40.111C116.639 33.5341 111.221 28.1511 104.611 24.6427C98.0004 21.1343 90.4947 19.658 83.0426 20.4005C75.5905 21.143 68.5267 24.071 62.7443 28.8143C56.962 33.5575 52.7208 39.9029 50.5571 47.0482C48.3934 54.1935 48.4043 61.8177 50.5885 68.9568C52.7727 76.0959 57.032 82.4292 62.828 87.156C66.6768 90.2948 71.1085 92.6474 75.8697 94.0793C80.631 95.5112 85.6287 95.9944 90.5774 95.5013C95.5261 95.0082 100.329 93.5485 104.711 91.2055C109.094 88.8625 112.97 85.6821 116.12 81.846Z" fill="#00D27F"/>
<path d="M119.761 81.7032C123.823 84.1207 127.688 86.7778 131.485 89.519C135.281 92.2602 138.981 95.1149 142.622 98.0452C146.263 100.976 149.836 103.99 153.283 107.156C155.01 108.737 156.697 110.36 158.345 112.024C159.999 113.706 161.623 115.388 163.155 117.213C163.509 117.635 163.704 118.167 163.707 118.717C163.709 119.268 163.52 119.802 163.17 120.228C162.821 120.654 162.333 120.945 161.791 121.051C161.25 121.158 160.687 121.073 160.202 120.811C158.092 119.676 156.118 118.423 154.148 117.141C152.178 115.859 150.254 114.522 148.355 113.147C144.559 110.406 140.884 107.517 137.285 104.537C133.687 101.556 130.143 98.5077 126.696 95.3377C123.25 92.1677 119.87 88.922 116.689 85.4324C116.292 85.0008 116.064 84.441 116.048 83.8556C116.031 83.2702 116.227 82.6984 116.599 82.2452C116.972 81.7921 117.495 81.4878 118.074 81.3882C118.653 81.2887 119.249 81.4005 119.752 81.7032H119.761Z" fill="#00D27F"/>
</svg>
