<svg width="54" height="54" viewBox="0 0 54 54" fill="none" xmlns="http://www.w3.org/2000/svg">
<circle cx="27" cy="27" r="23" fill="#F2F2F2"/>
<circle cx="27" cy="27" r="26.5" stroke="#72838A" stroke-dasharray="2 2"/>
<path d="M19.2809 16.4521V14.1859L34.7967 14.1858V16.452C34.7967 20.0314 33.0733 23.4222 30.1072 25.5992C29.5719 25.9922 29.2521 26.6135 29.2521 27.2776C29.2521 27.9404 29.5699 28.5617 30.1043 28.9538C33.1339 31.1762 34.7969 34.5964 34.7969 38.1024V40.3687L19.281 40.3688V38.1026C19.281 34.602 20.9393 31.1799 23.9738 28.9538C24.5081 28.5618 24.8257 27.9405 24.8257 27.2779V27.2778C24.8257 26.6135 24.5057 25.9922 23.9702 25.5991C21.0108 23.4269 19.2809 20.0394 19.2809 16.4521Z" fill="#D8ECFE"/>
<path d="M23.9704 25.599C21.011 23.4269 19.2811 20.0394 19.281 16.4521V14.1859L34.7969 14.1858L21.8184 14.1859V16.4521C21.8184 20.0394 23.5484 23.4269 26.5078 25.599C27.0433 25.9921 27.3632 26.6134 27.3632 27.2777V27.2777C27.3632 27.9404 27.0456 28.5617 26.5114 28.9536C23.4769 31.1798 21.8186 34.6019 21.8186 38.1025V40.3687H19.2812V38.1025C19.2812 34.6019 20.9395 31.1798 23.9739 28.9536C24.5082 28.5617 24.8258 27.9404 24.8258 27.2777V27.2777C24.8258 26.6134 24.5059 25.9921 23.9704 25.599Z" fill="#C4E2FF"/>
<path d="M33.0059 38.5473V38.2458C33.0059 36.7472 32.2308 35.3288 30.8493 34.1919C29.7734 33.3065 28.4222 32.8401 27.0383 32.8401C25.6544 32.8401 24.3032 33.3065 23.2272 34.192C21.8457 35.329 21.0706 36.7473 21.0706 38.2459V38.5473L33.0059 38.5473Z" fill="#F5C27C"/>
<path d="M35.2149 14.1857H18.8635C18.2703 14.1857 17.7893 13.6964 17.7893 13.0929C17.7893 12.4893 18.2703 12 18.8635 12H35.2149C35.8082 12 36.2891 12.4893 36.2891 13.093C36.289 13.6965 35.8081 14.1857 35.2149 14.1857Z" fill="#18C681"/>
<path d="M35.2149 42.5546H18.8635C18.2703 42.5546 17.7893 42.0653 17.7893 41.4618C17.7893 40.8582 18.2703 40.3689 18.8635 40.3689H35.2149C35.8082 40.3689 36.2891 40.8582 36.2891 41.4619C36.289 42.0654 35.8081 42.5546 35.2149 42.5546Z" fill="#18C681"/>
<path d="M27.0389 31.7038C27.2936 31.7038 27.5 31.4973 27.5 31.2427V30.6279C27.5 30.3732 27.2936 30.1668 27.0389 30.1668C26.7843 30.1668 26.5779 30.3733 26.5779 30.6279V31.2427C26.5779 31.4973 26.7843 31.7038 27.0389 31.7038ZM27.0389 29.3061C27.2936 29.3061 27.5 29.0997 27.5 28.8451V28.2303C27.5 27.9756 27.2936 27.7692 27.0389 27.7692C26.7843 27.7692 26.5779 27.9756 26.5779 28.2303V28.8451C26.5779 29.0997 26.7843 29.3061 27.0389 29.3061ZM27.0389 26.9085C27.2936 26.9085 27.5 26.7021 27.5 26.4474V25.8326C27.5 25.5779 27.2936 25.3716 27.0389 25.3716C26.7843 25.3716 26.5779 25.578 26.5779 25.8326V26.4474C26.5779 26.7021 26.7843 26.9085 27.0389 26.9085Z" fill="#FEB137"/>
<path d="M32.9023 17.8459C32.6065 19.8165 31.6882 21.6342 30.2778 23.0697C29.4196 23.9431 28.2523 24.4293 27.0385 24.4293C25.8247 24.4293 24.6575 23.9431 23.7993 23.0698C22.3889 21.6343 21.4707 19.8167 21.1748 17.8459H32.9023Z" fill="#FEC478"/>
<path d="M18.8632 12H22C21.4068 12 20.9258 12.4893 20.9258 13.0929C20.9258 13.6964 21.4068 14.1857 22 14.1857H18.8632C18.2699 14.1857 17.789 13.6964 17.789 13.0929C17.789 12.4893 18.2699 12 18.8632 12Z" fill="#00D27F"/>
<path d="M18.8632 40.3689H22C21.4068 40.3689 20.9258 40.8582 20.9258 41.4618C20.9258 42.0653 21.4068 42.5546 22 42.5546H18.8632C18.2699 42.5546 17.789 42.0653 17.789 41.4618C17.789 40.8582 18.2699 40.3689 18.8632 40.3689Z" fill="#00D27F"/>
<path d="M22.1953 35.2327C21.9463 36.1674 21.8183 37.1319 21.8183 38.1026V38.5473H21.0712V38.2459C21.0712 37.1761 21.4667 36.1475 22.1953 35.2327Z" fill="#FFC344"/>
<path d="M21.9057 17.8459C22.1691 19.9347 23.0192 21.906 24.3516 23.5477C24.1564 23.4044 23.9711 23.2452 23.7987 23.0698C22.3883 21.6344 21.4701 19.8167 21.1742 17.846H21.9057V17.8459Z" fill="#F6AB31"/>
</svg>
