<svg width="24" height="24" viewBox="0 0 24 24" fill="none" xmlns="http://www.w3.org/2000/svg">
<path d="M22.4081 12.6038C22.1976 12.5596 21.9804 12.5576 21.7691 12.598C21.5578 12.6383 21.3566 12.7201 21.1772 12.8387L17.9361 14.9672V3.15979C17.9361 2.11877 17.0806 1.29145 16.0395 1.29145H14.0552V0.314668C14.0552 0.231213 14.022 0.151176 13.963 0.0921641C13.904 0.0331524 13.824 0 13.7405 0C13.6571 0 13.577 0.0331524 13.518 0.0921641C13.459 0.151176 13.4258 0.231213 13.4258 0.314668V1.29145H10.7512V0.314668C10.7512 0.231213 10.718 0.151176 10.659 0.0921641C10.6 0.0331524 10.5199 0 10.4365 0C10.353 0 10.273 0.0331524 10.214 0.0921641C10.155 0.151176 10.1218 0.231213 10.1218 0.314668V1.29145H7.49959V0.314668C7.49959 0.231213 7.46644 0.151176 7.40743 0.0921641C7.34842 0.0331524 7.26838 0 7.18492 0C7.10147 0 7.02143 0.0331524 6.96242 0.0921641C6.90341 0.151176 6.87026 0.231213 6.87026 0.314668V1.29145H4.19558V0.314668C4.19558 0.231213 4.16242 0.151176 4.10341 0.0921641C4.0444 0.0331524 3.96436 0 3.88091 0C3.79745 0 3.71742 0.0331524 3.6584 0.0921641C3.59939 0.151176 3.56624 0.231213 3.56624 0.314668V1.29145H1.87941C1.63304 1.28969 1.38877 1.33674 1.16067 1.42987C0.932583 1.523 0.725191 1.66038 0.550466 1.83408C0.37574 2.00777 0.23714 2.21435 0.142662 2.44189C0.0481833 2.66943 -0.000302594 2.91342 1.42084e-06 3.15979V22.0923C1.42084e-06 23.1334 0.83833 24 1.87941 24H16.0395C17.0806 24 17.9361 23.1334 17.9361 22.0923V18.8845L22.9753 15.5753C23.2459 15.3975 23.4578 15.1434 23.584 14.8452C23.7102 14.547 23.7452 14.2181 23.6845 13.9C23.6238 13.5819 23.4701 13.289 23.2429 13.0583C23.0157 12.8276 22.7252 12.6694 22.4081 12.6038ZM13.7227 3.26201C13.8328 3.26201 13.9404 3.29464 14.0319 3.35578C14.1234 3.41693 14.1947 3.50383 14.2368 3.60551C14.2789 3.70718 14.2899 3.81906 14.2685 3.927C14.247 4.03494 14.194 4.13409 14.1162 4.21191C14.0384 4.28973 13.9392 4.34272 13.8313 4.36419C13.7233 4.38566 13.6115 4.37464 13.5098 4.33253C13.4081 4.29041 13.3212 4.21909 13.2601 4.12759C13.1989 4.03608 13.1663 3.9285 13.1663 3.81845C13.1664 3.67092 13.2251 3.52947 13.3294 3.42515C13.4338 3.32083 13.5752 3.26216 13.7227 3.26201ZM10.4437 3.26201C10.5538 3.26202 10.6614 3.29466 10.7529 3.35581C10.8444 3.41696 10.9157 3.50387 10.9578 3.60554C10.9999 3.70722 11.0109 3.8191 10.9894 3.92703C10.9679 4.03497 10.9149 4.13411 10.8371 4.21193C10.7593 4.28974 10.6602 4.34273 10.5522 4.3642C10.4443 4.38566 10.3324 4.37464 10.2307 4.33252C10.1291 4.29041 10.0422 4.21909 9.98101 4.12758C9.91987 4.03608 9.88724 3.9285 9.88724 3.81845C9.88741 3.67091 9.94609 3.52947 10.0504 3.42515C10.1547 3.32083 10.2962 3.26216 10.4437 3.26201ZM7.16463 3.26201C7.27467 3.26204 7.38224 3.2947 7.47373 3.35586C7.56521 3.41702 7.63651 3.50394 7.6786 3.60561C7.72069 3.70729 7.73169 3.81917 7.7102 3.9271C7.68871 4.03503 7.6357 4.13416 7.55788 4.21196C7.48005 4.28977 7.3809 4.34275 7.27297 4.3642C7.16503 4.38566 7.05316 4.37463 6.95149 4.33251C6.84983 4.29039 6.76293 4.21907 6.7018 4.12757C6.64066 4.03607 6.60803 3.92849 6.60803 3.81845C6.6082 3.67089 6.6669 3.52943 6.77125 3.42511C6.8756 3.32079 7.01708 3.26213 7.16463 3.26201ZM3.88563 3.26201C3.99568 3.26202 4.10326 3.29466 4.19476 3.35581C4.28625 3.41696 4.35757 3.50387 4.39967 3.60554C4.44178 3.70722 4.45279 3.8191 4.43132 3.92703C4.40984 4.03497 4.35684 4.13411 4.27902 4.21193C4.2012 4.28974 4.10205 4.34273 3.99411 4.3642C3.88618 4.38566 3.7743 4.37464 3.67262 4.33252C3.57095 4.29041 3.48405 4.21909 3.42291 4.12758C3.36177 4.03608 3.32914 3.9285 3.32914 3.81845C3.3293 3.67091 3.38799 3.52947 3.49232 3.42515C3.59665 3.32083 3.73809 3.26216 3.88563 3.26201ZM17.3067 22.0923C17.3052 22.429 17.1715 22.7515 16.9345 22.9906C16.6975 23.2297 16.3761 23.3662 16.0395 23.3707H1.87941C1.18525 23.3707 0.629338 22.7864 0.629338 22.0923V3.15979C0.628945 2.99604 0.661093 2.83384 0.723913 2.68262C0.786734 2.53139 0.878975 2.39416 0.99528 2.27888C1.11158 2.16361 1.24963 2.07259 1.40141 2.01112C1.55319 1.94964 1.71567 1.91894 1.87941 1.92079H3.56624V2.67536C3.09424 2.81361 2.69749 3.27355 2.69749 3.81866C2.69749 3.97434 2.72816 4.1285 2.78774 4.27233C2.84731 4.41616 2.93464 4.54685 3.04472 4.65694C3.15481 4.76702 3.2855 4.85435 3.42933 4.91393C3.57316 4.9735 3.72732 5.00417 3.88301 5.00417C4.03869 5.00417 4.19285 4.9735 4.33668 4.91393C4.48052 4.85435 4.61121 4.76702 4.72129 4.65694C4.83138 4.54685 4.9187 4.41616 4.97828 4.27233C5.03785 4.1285 5.06852 3.97434 5.06852 3.81866C5.07225 3.55781 4.98821 3.30328 4.8299 3.09594C4.67159 2.8886 4.44819 2.74048 4.19558 2.67536V1.92079H6.87026V2.67536C6.61677 2.74009 6.39227 2.88786 6.23257 3.09508C6.07288 3.3023 5.98719 3.55704 5.98918 3.81866C5.98918 4.13348 6.11425 4.4354 6.33686 4.65801C6.55947 4.88063 6.8614 5.00569 7.17622 5.00569C7.49104 5.00569 7.79297 4.88063 8.01558 4.65801C8.23819 4.4354 8.36325 4.13348 8.36325 3.81866C8.35878 3.56122 8.27276 3.31184 8.11756 3.10639C7.96237 2.90095 7.746 2.75003 7.49959 2.67536V1.92079H10.1218V2.67536C9.64982 2.81361 9.25434 3.27355 9.25434 3.81866C9.25434 4.133 9.37921 4.43448 9.60149 4.65675C9.82377 4.87903 10.1252 5.00391 10.4396 5.00391C10.7539 5.00391 11.0554 4.87903 11.2777 4.65675C11.5 4.43448 11.6248 4.133 11.6248 3.81866C11.6284 3.55775 11.5442 3.30321 11.3858 3.09589C11.2273 2.88856 11.0038 2.74046 10.7512 2.67536V1.92079H13.4258V2.67536C13.1725 2.7401 12.9481 2.8879 12.7886 3.09515C12.629 3.3024 12.5436 3.55714 12.5459 3.81866C12.5459 4.13343 12.6709 4.43532 12.8935 4.6579C13.1161 4.88049 13.418 5.00553 13.7327 5.00553C14.0475 5.00553 14.3494 4.88049 14.572 4.6579C14.7946 4.43532 14.9196 4.13343 14.9196 3.81866C14.9196 3.27376 14.5272 2.81381 14.0552 2.67536V1.92079H16.0395C16.7335 1.92079 17.3067 2.46579 17.3067 3.15979V15.3805L16.1248 16.1567C16.0885 16.1805 16.0575 16.2117 16.0338 16.2481C16.0102 16.2845 15.9943 16.3254 15.9872 16.3683C15.9801 16.4112 15.9819 16.455 15.9926 16.4971C16.0033 16.5392 16.0226 16.5787 16.0493 16.613C16.0979 16.6753 16.1682 16.7171 16.2462 16.73C16.3242 16.7429 16.4042 16.7259 16.4703 16.6826L21.1493 13.6099L21.5299 14.1892L13.6025 19.3954L13.2218 18.816L14.7112 17.8381C14.7458 17.8154 14.7755 17.7861 14.7987 17.7519C14.822 17.7178 14.8382 17.6793 14.8466 17.6389C14.855 17.5984 14.8553 17.5567 14.8476 17.5161C14.8399 17.4755 14.8242 17.4368 14.8015 17.4023C14.7788 17.3678 14.7496 17.338 14.7154 17.3148C14.6812 17.2916 14.6428 17.2753 14.6023 17.2669C14.5619 17.2585 14.5202 17.2582 14.4796 17.2659C14.439 17.2737 14.4003 17.2893 14.3658 17.312L12.6147 18.4618C12.6115 18.464 12.6085 18.4667 12.6053 18.4689C12.5973 18.4746 12.5896 18.4802 12.5819 18.4866C12.5794 18.4887 12.5772 18.4912 12.5748 18.4934H7.7723C7.68885 18.4934 7.60881 18.5265 7.5498 18.5855C7.49079 18.6445 7.45764 18.7246 7.45764 18.808C7.45764 18.8915 7.49079 18.9715 7.5498 19.0305C7.60881 19.0895 7.68885 19.1227 7.7723 19.1227H12.2201L11.9973 19.5437C11.9876 19.5428 11.9778 19.5423 11.9679 19.5423H7.7723C7.68885 19.5423 7.60881 19.5754 7.5498 19.6344C7.49079 19.6934 7.45764 19.7735 7.45764 19.8569C7.45764 19.9404 7.49079 20.0204 7.5498 20.0794C7.60881 20.1384 7.68885 20.1716 7.7723 20.1716H11.665L11.3012 20.8589C11.2758 20.9068 11.2633 20.9605 11.2648 21.0147C11.2663 21.0689 11.2817 21.1219 11.3097 21.1683C11.3377 21.2148 11.3772 21.2533 11.4244 21.28C11.4716 21.3067 11.5249 21.3207 11.5792 21.3208C11.5819 21.3208 11.5847 21.3208 11.5874 21.3208L14.2468 21.2511C14.2532 21.2511 14.2596 21.2498 14.266 21.2493C14.2724 21.2488 14.2796 21.2484 14.2865 21.2473C14.2948 21.2461 14.3029 21.2439 14.311 21.2421C14.3169 21.2407 14.323 21.2397 14.3289 21.2379C14.3427 21.2338 14.3561 21.2287 14.3692 21.2227C14.3724 21.2213 14.3754 21.2193 14.3785 21.2175C14.3887 21.2125 14.3986 21.207 14.4082 21.201C14.4092 21.2003 14.4103 21.2 14.4113 21.1993L17.3067 19.2979V22.0923ZM13.665 20.6366L12.1092 20.6774L12.8152 19.3433L13.665 20.6366ZM14.3287 20.5006L14.3046 20.4639L13.9479 19.9214L21.8753 14.7155L22.256 15.2948L14.3287 20.5006ZM22.773 14.9352L21.6845 13.2785C21.8186 13.2221 21.9633 13.1952 22.1087 13.1996C22.2541 13.204 22.3969 13.2395 22.5274 13.3039C22.603 13.3403 22.6731 13.387 22.7358 13.4428C22.8418 13.5349 22.9275 13.6481 22.9874 13.7752C23.0472 13.9023 23.0799 14.0404 23.0835 14.1808C23.087 14.3212 23.0612 14.4608 23.0077 14.5907C22.9543 14.7206 22.8743 14.8379 22.773 14.9352Z" fill="#AE4343"/>
</svg>
