<svg width="16" height="21" viewBox="0 0 16 21" fill="none" xmlns="http://www.w3.org/2000/svg">
<path d="M14.3712 3.1363H11.811V3.63023C11.811 3.72888 11.7718 3.82349 11.702 3.89325C11.6323 3.963 11.5376 4.00219 11.439 4.00219H4.83069C4.73204 4.00219 4.63743 3.963 4.56768 3.89325C4.49792 3.82349 4.45873 3.72888 4.45873 3.63023V3.1363H1.8985C1.66328 3.1334 1.43654 3.22398 1.26807 3.38815C1.0996 3.55231 1.00318 3.77664 1 4.01185V19.1245C1.00318 19.3597 1.0996 19.584 1.26807 19.7482C1.43654 19.9124 1.66328 20.0029 1.8985 20H14.3712C14.6064 20.0029 14.8332 19.9124 15.0016 19.7482C15.1701 19.584 15.2665 19.3597 15.2697 19.1245V4.01185C15.2665 3.77664 15.1701 3.55231 15.0016 3.38815C14.8332 3.22398 14.6064 3.1334 14.3712 3.1363V3.1363Z" stroke="#242424" stroke-miterlimit="10"/>
<path d="M10.803 2.27151H8.64857V2.11089C8.65273 1.86653 8.57496 1.62781 8.42766 1.43279C8.28036 1.23777 8.072 1.09769 7.83581 1.03487C7.67791 0.993685 7.51271 0.988916 7.35269 1.02092C7.19268 1.05292 7.04202 1.12086 6.9121 1.21961C6.78218 1.31836 6.6764 1.44533 6.60273 1.59094C6.52906 1.73656 6.48944 1.897 6.48686 2.06017V2.27151H4.33119C4.27346 2.27151 4.2163 2.28288 4.16297 2.30497C4.10963 2.32706 4.06117 2.35944 4.02035 2.40026C3.97953 2.44108 3.94715 2.48954 3.92506 2.54287C3.90297 2.59621 3.8916 2.65337 3.8916 2.7111V3.55646C3.8916 3.61419 3.90297 3.67135 3.92506 3.72468C3.94715 3.77801 3.97953 3.82647 4.02035 3.86729C4.06117 3.90811 4.10963 3.94049 4.16297 3.96258C4.2163 3.98468 4.27346 3.99605 4.33119 3.99605H10.803C10.9196 3.99605 11.0314 3.94973 11.1139 3.86729C11.1963 3.78485 11.2426 3.67304 11.2426 3.55646V2.7111C11.2426 2.59451 11.1963 2.4827 11.1139 2.40026C11.0314 2.31782 10.9196 2.27151 10.803 2.27151V2.27151Z" stroke="#242424" stroke-miterlimit="10" stroke-linecap="round"/>
<path d="M4.40625 8.16357H12.1896" stroke="#242424" stroke-miterlimit="10" stroke-linecap="round"/>
<path d="M4.40625 11.6235H12.1896" stroke="#242424" stroke-miterlimit="10" stroke-linecap="round"/>
<path d="M4.40625 15.0823H12.1896" stroke="#242424" stroke-miterlimit="10" stroke-linecap="round"/>
</svg>
