<svg width="24" height="24" viewBox="0 0 24 24" fill="none" xmlns="http://www.w3.org/2000/svg">
<path d="M11.9574 23.5383C18.3299 23.5383 23.4958 18.3724 23.4958 11.9999C23.4958 5.62736 18.3299 0.461426 11.9574 0.461426C5.58488 0.461426 0.418945 5.62736 0.418945 11.9999C0.418945 18.3724 5.58488 23.5383 11.9574 23.5383Z" fill="#1977F3"/>
<path d="M16.4492 15.3358L16.9603 11.9997H13.7605V9.83515C13.7605 8.92323 14.2067 8.03242 15.6411 8.03242H17.0966V5.19283C17.0966 5.19283 15.7758 4.96729 14.5134 4.96729C11.8783 4.96729 10.1551 6.56394 10.1551 9.45708V11.9997H7.22461V15.3358H10.1551V23.3986C10.7424 23.4911 11.3444 23.5382 11.9578 23.5382C12.5711 23.5382 13.1731 23.4895 13.7605 23.3986V15.3358H16.4492Z" fill="white"/>
</svg>
