<svg width="24" height="24" viewBox="0 0 24 24" fill="none" xmlns="http://www.w3.org/2000/svg">
<g clip-path="url(#clip0_365_64971)">
<path d="M23.5269 12.2156C23.5269 11.2701 23.4484 10.5802 23.2785 9.86475H12.2305V14.132H18.7154C18.5847 15.1925 17.8787 16.7896 16.3097 17.8627L16.2877 18.0056L19.7809 20.65L20.0229 20.6736C22.2455 18.6677 23.5269 15.7163 23.5269 12.2156Z" fill="#4285F4"/>
<path d="M12.2298 23.459C15.4068 23.459 18.074 22.4368 20.0222 20.6737L16.309 17.8628C15.3153 18.54 13.9817 19.0127 12.2298 19.0127C9.11803 19.0127 6.47698 17.0069 5.53553 14.2344L5.39753 14.2458L1.76527 16.9928L1.71777 17.1218C3.65279 20.8781 7.62747 23.459 12.2298 23.459Z" fill="#34A853"/>
<path d="M5.53577 14.2346C5.28736 13.5191 5.1436 12.7525 5.1436 11.9604C5.1436 11.1682 5.28736 10.4016 5.52271 9.68613L5.51613 9.53375L1.83835 6.74268L1.71802 6.79861C0.920506 8.35736 0.462891 10.1078 0.462891 11.9604C0.462891 13.8129 0.920506 15.5633 1.71802 17.122L5.53577 14.2346Z" fill="#FBBC05"/>
<path d="M12.2298 4.90761C14.4393 4.90761 15.9298 5.84028 16.7797 6.6197L20.1006 3.45112C18.061 1.59854 15.4068 0.461426 12.2298 0.461426C7.62747 0.461426 3.65279 3.04225 1.71777 6.7985L5.52246 9.68603C6.47699 6.91354 9.11804 4.90761 12.2298 4.90761Z" fill="#EB4335"/>
</g>
<defs>
<clipPath id="clip0_365_64971">
<rect width="23.0769" height="23.0769" fill="white" transform="translate(0.461914 0.461426)"/>
</clipPath>
</defs>
</svg>
