<svg width="21" height="21" viewBox="0 0 21 21" fill="none" xmlns="http://www.w3.org/2000/svg">
<path d="M12.7687 18.75H0.375C0.275544 18.75 0.180161 18.7105 0.109835 18.6402C0.0395089 18.5698 0 18.4745 0 18.375V3.375C0 3.27554 0.0395089 3.18016 0.109835 3.10984C0.180161 3.03951 0.275544 3 0.375 3H16.875C16.9745 3 17.0698 3.03951 17.1402 3.10984C17.2105 3.18016 17.25 3.27554 17.25 3.375V10.9387C17.25 11.0382 17.2105 11.1336 17.1402 11.2039C17.0698 11.2742 16.9745 11.3137 16.875 11.3137C16.7755 11.3137 16.6802 11.2742 16.6098 11.2039C16.5395 11.1336 16.5 11.0382 16.5 10.9387V3.75H0.75V18H12.7687C12.8682 18 12.9636 18.0395 13.0339 18.1098C13.1042 18.1802 13.1437 18.2755 13.1437 18.375C13.1437 18.4745 13.1042 18.5698 13.0339 18.6402C12.9636 18.7105 12.8682 18.75 12.7687 18.75Z" fill="#999999"/>
<path d="M16.875 3.75H0.375C0.305358 3.75 0.237092 3.73061 0.177851 3.69399C0.11861 3.65738 0.0707348 3.60499 0.0395899 3.54271C0.00844509 3.48042 -0.0047388 3.41068 0.00151544 3.34132C0.00776968 3.27196 0.0332149 3.20571 0.0750001 3.15L2.325 0.15C2.35992 0.103411 2.40521 0.0655991 2.45728 0.0395621C2.50936 0.0135251 2.56678 -2.03702e-05 2.625 2.2993e-08H14.625C14.6832 -2.03702e-05 14.7406 0.0135251 14.7927 0.0395621C14.8448 0.0655991 14.8901 0.103411 14.925 0.15L17.175 3.15C17.2168 3.20571 17.2422 3.27196 17.2485 3.34132C17.2547 3.41068 17.2416 3.48042 17.2104 3.54271C17.1793 3.60499 17.1314 3.65738 17.0721 3.69399C17.0129 3.73061 16.9446 3.75 16.875 3.75ZM1.125 3H16.125L14.4375 0.75H2.8125L1.125 3Z" fill="#999999"/>
<path d="M10.875 8.25C10.7756 8.24998 10.6802 8.21046 10.6099 8.14013L10.125 7.65529L9.64013 8.14013C9.60532 8.17496 9.56399 8.2026 9.5185 8.22145C9.47301 8.24031 9.42424 8.25001 9.375 8.25001C9.32576 8.25001 9.27699 8.24031 9.2315 8.22145C9.18601 8.2026 9.14468 8.17496 9.10987 8.14013L8.625 7.65529L8.14013 8.14013C8.10532 8.17496 8.06399 8.2026 8.0185 8.22145C7.97301 8.24031 7.92424 8.25001 7.875 8.25001C7.82576 8.25001 7.77699 8.24031 7.7315 8.22145C7.68601 8.2026 7.64468 8.17496 7.60987 8.14013L7.125 7.65529L6.64013 8.14013C6.58768 8.19255 6.52087 8.22826 6.44814 8.24272C6.3754 8.25718 6.30002 8.24976 6.2315 8.22138C6.16299 8.193 6.10443 8.14495 6.06322 8.0833C6.02202 8.02164 6.00002 7.94916 6 7.875V3.375C6 3.27554 6.03951 3.18016 6.10983 3.10984C6.18016 3.03951 6.27554 3 6.375 3H10.875C10.9745 3 11.0698 3.03951 11.1402 3.10984C11.2105 3.18016 11.25 3.27554 11.25 3.375V7.875C11.25 7.97446 11.2105 8.06984 11.1402 8.14017C11.0698 8.21049 10.9745 8.25 10.875 8.25ZM8.625 6.75C8.67425 6.74994 8.72303 6.75962 8.76853 6.77848C8.81403 6.79733 8.85535 6.825 8.89013 6.85987L9.375 7.34471L9.85987 6.85987C9.89468 6.82504 9.93601 6.7974 9.9815 6.77855C10.027 6.75969 10.0758 6.74999 10.125 6.74999C10.1742 6.74999 10.223 6.75969 10.2685 6.77855C10.314 6.7974 10.3553 6.82504 10.3901 6.85987L10.5 6.96971V3.75H6.75V6.96971L6.85987 6.85987C6.89468 6.82504 6.93601 6.7974 6.9815 6.77855C7.02699 6.75969 7.07576 6.74999 7.125 6.74999C7.17424 6.74999 7.22301 6.75969 7.2685 6.77855C7.31399 6.7974 7.35532 6.82504 7.39013 6.85987L7.875 7.34471L8.35987 6.85987C8.39465 6.825 8.43597 6.79733 8.48147 6.77848C8.52697 6.75962 8.57575 6.74994 8.625 6.75Z" fill="#999999"/>
<path d="M10.8749 3.75H6.37492C6.31795 3.74999 6.26173 3.73699 6.21053 3.71201C6.15933 3.68702 6.1145 3.6507 6.07944 3.6058C6.04437 3.5609 6.02 3.5086 6.00817 3.45287C5.99634 3.39714 5.99737 3.33945 6.01117 3.28417L6.76117 0.284175C6.78142 0.203027 6.82823 0.13098 6.89414 0.0794891C6.96005 0.0279981 7.04128 1.89316e-05 7.12492 0H10.1249C10.2086 1.89316e-05 10.2898 0.0279981 10.3557 0.0794891C10.4216 0.13098 10.4684 0.203027 10.4887 0.284175L11.2387 3.28417C11.2525 3.33945 11.2535 3.39714 11.2417 3.45287C11.2298 3.5086 11.2055 3.5609 11.1704 3.6058C11.1353 3.6507 11.0905 3.68702 11.0393 3.71201C10.9881 3.73699 10.9319 3.74999 10.8749 3.75ZM6.8554 3H10.3945L9.83196 0.75H7.4179L6.8554 3Z" fill="#999999"/>
<path d="M16.125 20.25C15.1608 20.25 14.2183 19.9641 13.4166 19.4284C12.6149 18.8927 11.9901 18.1314 11.6211 17.2406C11.2521 16.3498 11.1556 15.3696 11.3437 14.4239C11.5318 13.4783 11.9961 12.6096 12.6779 11.9279C13.3596 11.2461 14.2283 10.7818 15.1739 10.5937C16.1196 10.4056 17.0998 10.5021 17.9906 10.8711C18.8814 11.2401 19.6427 11.8649 20.1784 12.6666C20.7141 13.4683 21 14.4108 21 15.375C20.9985 16.6675 20.4844 17.9066 19.5705 18.8205C18.6566 19.7344 17.4175 20.2485 16.125 20.25ZM16.125 11.25C15.3092 11.25 14.5116 11.4919 13.8333 11.9452C13.1549 12.3985 12.6262 13.0427 12.314 13.7964C12.0018 14.5502 11.9201 15.3796 12.0793 16.1797C12.2384 16.9799 12.6313 17.7149 13.2082 18.2918C13.7851 18.8687 14.5201 19.2616 15.3203 19.4207C16.1204 19.5799 16.9498 19.4982 17.7036 19.186C18.4573 18.8738 19.1016 18.3451 19.5548 17.6667C20.0081 16.9884 20.25 16.1909 20.25 15.375C20.2488 14.2814 19.8138 13.2329 19.0404 12.4596C18.2671 11.6862 17.2186 11.2512 16.125 11.25Z" fill="#999999"/>
<path d="M2.625 15.75C2.52554 15.75 2.43016 15.7105 2.35984 15.6402C2.28951 15.5698 2.25 15.4745 2.25 15.375V13.125C2.25 13.0255 2.28951 12.9302 2.35984 12.8598C2.43016 12.7895 2.52554 12.75 2.625 12.75C2.72446 12.75 2.81984 12.7895 2.89016 12.8598C2.96049 12.9302 3 13.0255 3 13.125V15.375C3 15.4745 2.96049 15.5698 2.89016 15.6402C2.81984 15.7105 2.72446 15.75 2.625 15.75Z" fill="#999999"/>
<path d="M3.37527 14.25C3.32602 14.2501 3.27725 14.2404 3.23175 14.2215C3.18625 14.2027 3.14492 14.175 3.11015 14.1401L2.62527 13.6553L2.1404 14.1401C2.06967 14.2084 1.97495 14.2462 1.87662 14.2454C1.7783 14.2445 1.68425 14.2051 1.61472 14.1356C1.54519 14.066 1.50575 13.972 1.5049 13.8737C1.50404 13.7753 1.54184 13.6806 1.61015 13.6099L2.36015 12.8599C2.39496 12.8251 2.43629 12.7974 2.48178 12.7786C2.52727 12.7597 2.57603 12.75 2.62527 12.75C2.67452 12.75 2.72328 12.7597 2.76877 12.7786C2.81426 12.7974 2.85559 12.8251 2.8904 12.8599L3.6404 13.6099C3.69283 13.6623 3.72853 13.7291 3.74299 13.8019C3.75746 13.8746 3.75003 13.95 3.72165 14.0185C3.69328 14.087 3.64522 14.1456 3.58357 14.1868C3.52192 14.228 3.44943 14.25 3.37527 14.25Z" fill="#999999"/>
<path d="M5.625 15.75C5.52554 15.75 5.43016 15.7105 5.35983 15.6402C5.28951 15.5698 5.25 15.4745 5.25 15.375V13.125C5.25 13.0255 5.28951 12.9302 5.35983 12.8598C5.43016 12.7895 5.52554 12.75 5.625 12.75C5.72446 12.75 5.81984 12.7895 5.89017 12.8598C5.96049 12.9302 6 13.0255 6 13.125V15.375C6 15.4745 5.96049 15.5698 5.89017 15.6402C5.81984 15.7105 5.72446 15.75 5.625 15.75Z" fill="#999999"/>
<path d="M6.37527 14.25C6.32602 14.2501 6.27725 14.2404 6.23175 14.2215C6.18625 14.2027 6.14492 14.175 6.11015 14.1401L5.62528 13.6553L5.1404 14.1401C5.06967 14.2084 4.97495 14.2462 4.87662 14.2454C4.7783 14.2445 4.68425 14.2051 4.61472 14.1356C4.54519 14.066 4.50575 13.972 4.5049 13.8737C4.50404 13.7753 4.54184 13.6806 4.61015 13.6099L5.36015 12.8599C5.39496 12.8251 5.43629 12.7974 5.48178 12.7786C5.52727 12.7597 5.57603 12.75 5.62528 12.75C5.67452 12.75 5.72328 12.7597 5.76877 12.7786C5.81427 12.7974 5.85559 12.8251 5.8904 12.8599L6.6404 13.6099C6.69283 13.6623 6.72853 13.7291 6.74299 13.8019C6.75746 13.8746 6.75003 13.95 6.72165 14.0185C6.69328 14.087 6.64523 14.1456 6.58357 14.1868C6.52192 14.228 6.44943 14.25 6.37527 14.25Z" fill="#999999"/>
<path d="M6.375 17.25H1.875C1.77554 17.25 1.68016 17.2105 1.60984 17.1402C1.53951 17.0698 1.5 16.9745 1.5 16.875C1.5 16.7755 1.53951 16.6802 1.60984 16.6098C1.68016 16.5395 1.77554 16.5 1.875 16.5H6.375C6.47446 16.5 6.56984 16.5395 6.64017 16.6098C6.71049 16.6802 6.75 16.7755 6.75 16.875C6.75 16.9745 6.71049 17.0698 6.64017 17.1402C6.56984 17.2105 6.47446 17.25 6.375 17.25Z" fill="#999999"/>
<path d="M15.3747 16.1251C15.2937 16.1251 15.2149 16.0988 15.1502 16.0501L13.6502 14.9251C13.6036 14.8902 13.5657 14.8449 13.5397 14.7928C13.5136 14.7408 13.5 14.6833 13.5 14.6251C13.5 14.5668 13.5136 14.5094 13.5397 14.4573C13.5657 14.4052 13.6036 14.36 13.6502 14.3251L15.1502 13.2001C15.1896 13.1696 15.2346 13.1473 15.2826 13.1344C15.3306 13.1215 15.3808 13.1183 15.43 13.125C15.4793 13.1316 15.5268 13.148 15.5697 13.1732C15.6126 13.1984 15.65 13.2318 15.6799 13.2716C15.7097 13.3114 15.7313 13.3568 15.7435 13.405C15.7556 13.4532 15.758 13.5034 15.7506 13.5525C15.7432 13.6017 15.7261 13.6489 15.7002 13.6914C15.6744 13.7339 15.6403 13.7709 15.6001 13.8001L14.5002 14.6251L15.6001 15.4501C15.6631 15.4973 15.7096 15.5632 15.7331 15.6383C15.7565 15.7135 15.7557 15.7941 15.7308 15.8688C15.7059 15.9435 15.658 16.0085 15.5941 16.0544C15.5302 16.1004 15.4535 16.1251 15.3747 16.1251Z" fill="#999999"/>
<path d="M17.0625 17.625H16.125C16.0255 17.625 15.9302 17.5855 15.8598 17.5152C15.7895 17.4448 15.75 17.3495 15.75 17.25C15.75 17.1505 15.7895 17.0552 15.8598 16.9848C15.9302 16.9145 16.0255 16.875 16.125 16.875H17.0625C17.3111 16.875 17.5496 16.7762 17.7254 16.6004C17.9012 16.4246 18 16.1861 18 15.9375C18 15.6889 17.9012 15.4504 17.7254 15.2746C17.5496 15.0988 17.3111 15 17.0625 15H13.875C13.7755 15 13.6802 14.9605 13.6098 14.8902C13.5395 14.8198 13.5 14.7245 13.5 14.625C13.5 14.5255 13.5395 14.4302 13.6098 14.3598C13.6802 14.2895 13.7755 14.25 13.875 14.25H17.0625C17.5101 14.25 17.9393 14.4278 18.2557 14.7443C18.5722 15.0607 18.75 15.4899 18.75 15.9375C18.75 16.3851 18.5722 16.8143 18.2557 17.1307C17.9393 17.4472 17.5101 17.625 17.0625 17.625Z" fill="#999999"/>
</svg>
