<svg width="21" height="21" viewBox="0 0 21 21" fill="none" xmlns="http://www.w3.org/2000/svg">
<path d="M20.436 9.13399C20.4354 9.13351 20.4349 9.13287 20.4344 9.13239L11.8672 0.566368C11.5021 0.201073 11.0166 0 10.5001 0C9.98369 0 9.49818 0.201073 9.13285 0.566368L0.570132 9.12806C0.567248 9.13094 0.564204 9.13399 0.56148 9.13687C-0.188413 9.89101 -0.187131 11.1146 0.565165 11.8668C0.908866 12.2106 1.36265 12.4096 1.84799 12.4306C1.86786 12.4325 1.88773 12.4335 1.90776 12.4335H2.24906V18.7374C2.24906 19.985 3.2643 21 4.51204 21H7.8638C8.20365 21 8.4791 20.7244 8.4791 20.3848V15.4424C8.4791 14.8731 8.94233 14.4101 9.51164 14.4101H11.4886C12.0579 14.4101 12.521 14.8731 12.521 15.4424V20.3848C12.521 20.7244 12.7964 21 13.1363 21H16.488C17.7359 21 18.751 19.985 18.751 18.7374V12.4335H19.0676C19.5839 12.4335 20.0694 12.2324 20.4349 11.867C21.188 11.1136 21.1883 9.88781 20.436 9.13399ZM19.5647 10.997C19.4319 11.1298 19.2553 11.203 19.0676 11.203H18.1357C17.7959 11.203 17.5204 11.4784 17.5204 11.8183V18.7374C17.5204 19.3065 17.0574 19.7695 16.488 19.7695H13.7516V15.4424C13.7516 14.1948 12.7365 13.1796 11.4886 13.1796H9.51164C8.26374 13.1796 7.2485 14.1948 7.2485 15.4424V19.7695H4.51204C3.94289 19.7695 3.47965 19.3065 3.47965 18.7374V11.8183C3.47965 11.4784 3.20421 11.203 2.86436 11.203H1.94846C1.93885 11.2024 1.92939 11.2019 1.91962 11.2018C1.73631 11.1985 1.56438 11.1258 1.43555 10.9968C1.16155 10.7229 1.16155 10.277 1.43555 10.0028C1.43571 10.0028 1.43571 10.0027 1.43587 10.0025L1.43635 10.002L10.0032 1.43635C10.1359 1.30353 10.3123 1.23047 10.5001 1.23047C10.6878 1.23047 10.8642 1.30353 10.997 1.43635L19.562 10.0003C19.5632 10.0016 19.5647 10.0028 19.566 10.0041C19.8385 10.2786 19.838 10.7235 19.5647 10.997Z" fill="#00D27F"/>
</svg>
