<svg width="22" height="22" viewBox="0 0 22 22" fill="none" xmlns="http://www.w3.org/2000/svg">
<path d="M1 21L0.646447 20.6464C0.503448 20.7894 0.46067 21.0045 0.53806 21.1913C0.615451 21.3782 0.797769 21.5 1 21.5V21ZM3.92893 18.0711L4.28249 18.4246C4.47775 18.2294 4.47775 17.9128 4.28249 17.7175L3.92893 18.0711ZM6.55556 12.7222C6.27941 12.7222 6.05556 12.9461 6.05556 13.2222C6.05556 13.4984 6.27941 13.7222 6.55556 13.7222V12.7222ZM11 13.7222C11.2761 13.7222 11.5 13.4984 11.5 13.2222C11.5 12.9461 11.2761 12.7222 11 12.7222V13.7222ZM6.55556 8.27778C6.27941 8.27778 6.05556 8.50164 6.05556 8.77778C6.05556 9.05392 6.27941 9.27778 6.55556 9.27778V8.27778ZM15.4444 9.27778C15.7206 9.27778 15.9444 9.05392 15.9444 8.77778C15.9444 8.50164 15.7206 8.27778 15.4444 8.27778V9.27778ZM20.5 11C20.5 16.2467 16.2467 20.5 11 20.5V21.5C16.799 21.5 21.5 16.799 21.5 11H20.5ZM1.5 11C1.5 5.75329 5.75329 1.5 11 1.5V0.5C5.20101 0.5 0.5 5.20101 0.5 11H1.5ZM11 1.5C16.2467 1.5 20.5 5.75329 20.5 11H21.5C21.5 5.20101 16.799 0.5 11 0.5V1.5ZM11 20.5H1V21.5H11V20.5ZM4.28249 17.7175C2.56278 15.9978 1.5 13.6235 1.5 11H0.5C0.5 13.8994 1.6758 16.525 3.57538 18.4246L4.28249 17.7175ZM1.35355 21.3536L4.28249 18.4246L3.57538 17.7175L0.646447 20.6464L1.35355 21.3536ZM6.55556 13.7222H11V12.7222H6.55556V13.7222ZM6.55556 9.27778H15.4444V8.27778H6.55556V9.27778Z" fill="#242424"/>
</svg>
