<svg width="20" height="21" viewBox="0 0 20 21" fill="none" xmlns="http://www.w3.org/2000/svg">
<path d="M17.341 18.1366H1.74988C1.38258 18.1366 1.02459 18.0211 0.72663 17.8063C0.428671 17.5915 0.205851 17.2884 0.0897377 16.9399C-0.0263753 16.5915 -0.0298936 16.2153 0.0796813 15.8647C0.189256 15.5141 0.406368 15.2069 0.700258 14.9866L1.48633 14.397C1.78216 14.176 1.98064 13.8487 2.03997 13.4842L3.02621 7.49727C3.267 5.94053 4.05691 4.52135 5.25309 3.49638C6.44927 2.4714 7.97275 1.90831 9.54799 1.90894C11.1232 1.90956 12.6463 2.47385 13.8416 3.49977C15.037 4.52569 15.8258 5.9455 16.0654 7.50242L17.0509 13.4842C17.1103 13.8487 17.3087 14.176 17.6046 14.397L18.3909 14.9866C18.6848 15.2069 18.902 15.5142 19.0116 15.8648C19.1211 16.2154 19.1176 16.5916 19.0014 16.9401C18.8853 17.2886 18.6624 17.5917 18.3643 17.8065C18.0663 18.0212 17.7082 18.1367 17.3409 18.1366H17.341ZM9.54617 2.86384C8.19671 2.85729 6.89008 3.33727 5.86576 4.21581C4.84143 5.09435 4.16801 6.31261 3.96892 7.64732L2.98197 13.6393C2.88295 14.2467 2.55213 14.792 2.05915 15.1604L1.27284 15.7503C1.13923 15.8504 1.04053 15.9901 0.990717 16.1494C0.940906 16.3088 0.942515 16.4798 0.995318 16.6382C1.04812 16.7966 1.14944 16.9344 1.28491 17.032C1.42038 17.1296 1.58314 17.1821 1.75012 17.1821H17.3413C17.5082 17.1821 17.6709 17.1296 17.8063 17.032C17.9417 16.9344 18.043 16.7967 18.0958 16.6383C18.1486 16.4799 18.1503 16.309 18.1005 16.1496C18.0507 15.9903 17.9521 15.8507 17.8185 15.7505L17.032 15.1604C16.539 14.792 16.2082 14.2467 16.1092 13.6393L15.1226 7.65243C14.9245 6.31699 14.2517 5.09771 13.2274 4.21818C12.2032 3.33865 10.8962 2.85781 9.54617 2.86384Z" fill="#4090CD"/>
<path d="M10.9776 3.03547C10.8511 3.03547 10.7297 2.98518 10.6402 2.89568C10.5507 2.80617 10.5004 2.68477 10.5004 2.55819V1.9091C10.5004 1.65594 10.3998 1.41314 10.2208 1.23413C10.0418 1.05512 9.79898 0.95455 9.54582 0.95455C9.29266 0.95455 9.04986 1.05512 8.87085 1.23413C8.69184 1.41314 8.59127 1.65594 8.59127 1.9091V2.55819C8.59127 2.68477 8.54098 2.80617 8.45148 2.89568C8.36197 2.98518 8.24057 3.03547 8.11399 3.03547C7.98741 3.03547 7.86602 2.98518 7.77651 2.89568C7.687 2.80617 7.63672 2.68477 7.63672 2.55819V1.9091C7.63672 1.40277 7.83786 0.917188 8.19588 0.559162C8.55391 0.201137 9.03949 0 9.54582 0C10.0521 0 10.5377 0.201137 10.8958 0.559162C11.2538 0.917188 11.4549 1.40277 11.4549 1.9091V2.55819C11.4549 2.68477 11.4046 2.80617 11.3151 2.89568C11.2256 2.98518 11.1042 3.03547 10.9776 3.03547Z" fill="#4090CD"/>
<path d="M9.54503 21.0001C8.65926 20.9991 7.81006 20.6468 7.18372 20.0205C6.55739 19.3941 6.20509 18.5449 6.2041 17.6592C6.2041 17.5326 6.25439 17.4112 6.34389 17.3217C6.4334 17.2322 6.5548 17.1819 6.68138 17.1819C6.80796 17.1819 6.92935 17.2322 7.01886 17.3217C7.10837 17.4112 7.15865 17.5326 7.15865 17.6592C7.15865 18.2921 7.41007 18.899 7.8576 19.3466C8.30514 19.7941 8.91212 20.0455 9.54503 20.0455C10.1779 20.0455 10.7849 19.7941 11.2324 19.3466C11.68 18.899 11.9314 18.2921 11.9314 17.6592C11.9314 17.5326 11.9817 17.4112 12.0712 17.3217C12.1607 17.2322 12.2821 17.1819 12.4087 17.1819C12.5353 17.1819 12.6567 17.2322 12.7462 17.3217C12.8357 17.4112 12.886 17.5326 12.886 17.6592C12.885 18.5449 12.5327 19.3941 11.9063 20.0205C11.28 20.6468 10.4308 20.9991 9.54503 21.0001Z" fill="#4090CD"/>
</svg>
